<svg xmlns="http://www.w3.org/2000/svg" data-name="Layer 1" viewBox="0 0 512 512"><path fill="#070606" d="M359.81 471a22.48 22.48 0 0 0 1.56-19.72l-18.15-45.92a22.36 22.36 0 0 0-20.92-14.23h-3.4l-13.77-168h5a18.41 18.41 0 0 0 18.4-18.39v-8.21a18.42 18.42 0 0 0-18.4-18.4h-4l5.27-17.46a7.5 7.5 0 0 0 1.7-4.76 6.34 6.34 0 0 0 0-.76L327.83 106a7.5 7.5 0 0 0-7.18-9.67h-43.21V75.18h25a7.5 7.5 0 0 0 7.5-7.5V40.43a7.49 7.49 0 0 0-7.5-7.5h-25V7.5a7.5 7.5 0 0 0-7.5-7.5h-27.88a7.5 7.5 0 0 0-7.5 7.5v25.43h-25a7.49 7.49 0 0 0-7.5 7.5v27.25a7.5 7.5 0 0 0 7.5 7.5h25v21.16h-43.21a7.51 7.51 0 0 0-7.23 9.51l20 72.21h-2.22a18.42 18.42 0 0 0-18.4 18.4v8.21a18.41 18.41 0 0 0 18.4 18.39h5l-13.77 168h-3.4a22.36 22.36 0 0 0-20.92 14.23l-18.15 45.92a22.48 22.48 0 0 0 1.53 19.79A23.16 23.16 0 0 0 142 490.14v14.36a7.5 7.5 0 0 0 7.5 7.5h213a7.5 7.5 0 0 0 7.5-7.5v-14.36A23.16 23.16 0 0 0 359.81 471ZM217.05 60.18V47.93h25a7.5 7.5 0 0 0 7.5-7.5V15h12.88v25.43a7.5 7.5 0 0 0 7.5 7.5h25v12.25h-25a7.5 7.5 0 0 0-7.5 7.5v28.66h-12.87V67.68a7.5 7.5 0 0 0-7.5-7.5Zm-15.84 51.16h109.34l-11.16 37h-87.92Zm93.65 52-4.44 14.72h-70.71l-4.08-14.72Zm-93 44.72a3.4 3.4 0 0 1-3.4-3.39v-8.21a3.4 3.4 0 0 1 3.4-3.4H310.1a3.4 3.4 0 0 1 3.4 3.4v8.21a3.4 3.4 0 0 1-3.4 3.39h-95.89Zm102 183h-95.7l13.77-168h68.16Zm-139.28 65.68 18.15-45.92a7.44 7.44 0 0 1 7-4.74H322.3a7.44 7.44 0 0 1 7 4.74l18.15 45.92a7.49 7.49 0 0 1-6 10.2H170.62a7.49 7.49 0 0 1-6-10.2ZM355 497H157v-6.86a8.21 8.21 0 0 1 8.2-8.2h4.8c.51 0 1 .06 1.54.06h168.9c.52 0 1 0 1.54-.06h4.82a8.21 8.21 0 0 1 8.2 8.2Z"/></svg>