<svg xmlns="http://www.w3.org/2000/svg" data-name="Layer 1" viewBox="0 0 512 512"><path fill="#070606" d="m412.06 501.85-15.9-42.18a7.49 7.49 0 0 0-7-4.85h-7v-6.55a35.42 35.42 0 0 0-6.63-20.64 7.48 7.48 0 0 0 6.62-7.65l-1.18-41.74a7.48 7.48 0 0 0-3.67-6.24l-40.48-35.64A132.77 132.77 0 0 1 296.49 272L290 249.07A105 105 0 0 0 336.8 227l37.9 17.46a7.51 7.51 0 0 0 9.44-2.74L405 209.45a7.49 7.49 0 0 0-1.32-9.69L273.31 84.27V44a7.5 7.5 0 0 0-11.38-6.41l-68.29 41.29a144.14 144.14 0 0 0-33.37 27.6 241.79 241.79 0 0 0-43.88 249.22l.08.18a244.12 244.12 0 0 0 16.7 33.93l14.56 33.38a7.47 7.47 0 0 0 6 4.43 35.46 35.46 0 0 0-6.63 20.65v6.55h-7a7.51 7.51 0 0 0-7 4.85l-15.89 42.18a7.5 7.5 0 0 0 7 10.15H405a7.5 7.5 0 0 0 7-10.15ZM146.73 383.39a6.58 6.58 0 0 0-.42-.84 231.71 231.71 0 0 1-11.6-22.16h25.71a7.5 7.5 0 0 0 0-15H128.5a224.14 224.14 0 0 1-8.21-27.13h54.17a7.5 7.5 0 1 0 0-15h-57.18a223.35 223.35 0 0 1-2.81-27.13h74a7.5 7.5 0 0 0 0-15h-74.13a225.74 225.74 0 0 1 57.15-144.7 129.5 129.5 0 0 1 29.92-24.72l56.9-34.43v30.37a7.49 7.49 0 0 0 2.53 5.61l128.09 113.45-13.86 21.41-36.34-16.74a7.56 7.56 0 0 0-5.83-.17 7.47 7.47 0 0 0-2.48 1.57c-15.18 13.26-32.26 20.82-49.61 22.67a7.25 7.25 0 0 0-2 .19c-22.39 1.81-45.11-5.87-64.67-23a7.5 7.5 0 0 0-9.9 11.28c21.1 18.51 46 27.44 70.66 26.79l7.15 25.29a147.5 147.5 0 0 0 44.82 71.6L366 382.1l.86 30.59H159.51Zm220.39 64.88v6.55h-205v-6.55a20.61 20.61 0 0 1 20.59-20.58h163.82a20.61 20.61 0 0 1 20.59 20.58ZM135 497l10.24-27.18h8.49a7.92 7.92 0 0 0 .85.05h220a7.92 7.92 0 0 0 .85-.05H384L394.2 497Zm134.25-322.63a24.06 24.06 0 1 0-24.06-24.06 24.08 24.08 0 0 0 24.06 24.06Zm0-33.12a9.06 9.06 0 1 1-9.06 9.06 9.06 9.06 0 0 1 9.06-9.06Z"/></svg>