<svg xmlns="http://www.w3.org/2000/svg" data-name="Layer 1" viewBox="0 0 512 512">
					<path
						fill="#FFF"
						d="M359.81 471a22.48 22.48 0 0 0 1.56-19.72l-18.15-45.92a22.36 22.36 0 0 0-20.92-14.23h-3.4l-13.78-168.24h5a18.41 18.41 0 0 0 18.4-18.39v-8.21a18.42 18.42 0 0 0-18.4-18.4h-6.42a70 70 0 1 0-95.36 0h-6.44a18.42 18.42 0 0 0-18.4 18.4v8.21a18.41 18.41 0 0 0 18.4 18.39h5l-13.8 168.19h-3.4a22.36 22.36 0 0 0-20.92 14.23l-18.15 45.92a22.48 22.48 0 0 0 1.56 19.77A23.16 23.16 0 0 0 142 490.14v14.36a7.5 7.5 0 0 0 7.5 7.5h213a7.5 7.5 0 0 0 7.5-7.5v-14.36A23.16 23.16 0 0 0 359.81 471ZM201 126.69a55 55 0 1 1 75.11 51.2h-40.22a55.2 55.2 0 0 1-34.89-51.2Zm.9 81.2a3.4 3.4 0 0 1-3.4-3.39v-8.21a3.4 3.4 0 0 1 3.4-3.4h108.2a3.4 3.4 0 0 1 3.4 3.4v8.21a3.4 3.4 0 0 1-3.4 3.39Zm102 183.17h-95.7L221.92 223h68.16Zm-139.32 65.68 18.15-45.92a7.44 7.44 0 0 1 7-4.74H322.3a7.44 7.44 0 0 1 7 4.74l18.15 45.92a7.49 7.49 0 0 1-6 10.2H170.62a7.49 7.49 0 0 1-6-10.2ZM355 497H157v-6.86a8.21 8.21 0 0 1 8.2-8.2h4.8c.51 0 1 .06 1.54.06h168.9c.52 0 1 0 1.54-.06h4.82a8.21 8.21 0 0 1 8.2 8.2Z"
					/>
				</svg>