<svg
					xmlns="http://www.w3.org/2000/svg"
					data-name="Layer 1"
					viewBox="0 0 512 512"
				>
					<path
						fill="#000"
						d="M359.81 471a22.48 22.48 0 0 0 1.56-19.72l-18.15-45.92a22.36 22.36 0 0 0-20.92-14.23h-3.41l-13.76-168h5a18.41 18.41 0 0 0 18.4-18.39v-8.21a18.27 18.27 0 0 0-4.69-12.23 62.35 62.35 0 0 0-10.75-86.85l-42.7-42.59a19.89 19.89 0 0 0-27.89-.2L200 95.77c-.93.7-1.82 1.43-2.7 2.18a5.68 5.68 0 0 0-.64.57 62.34 62.34 0 0 0-8.1 85.34 18.32 18.32 0 0 0-5 12.59v8.21a18.41 18.41 0 0 0 18.4 18.39h5l-13.76 168h-3.5a22.36 22.36 0 0 0-20.92 14.23l-18.15 45.92a22.48 22.48 0 0 0 1.56 19.8A23.16 23.16 0 0 0 142 490.14v14.36a7.5 7.5 0 0 0 7.5 7.5h213a7.5 7.5 0 0 0 7.5-7.5v-14.36A23.16 23.16 0 0 0 359.81 471ZM222.73 94.61l13 13-9.61 9.7-13.2-13.15Zm-32.27 47a47.39 47.39 0 0 1 11.47-27.18l18.92 18.84a7.49 7.49 0 0 0 5.29 2.19 7.53 7.53 0 0 0 5.31-2.22l20.15-20.34a7.5 7.5 0 0 0 0-10.58l-18.1-18.15 19.41-18.81a4.89 4.89 0 0 1 6.86 0l43 42.9a6.57 6.57 0 0 0 .68.61 47.37 47.37 0 0 1 6 69.14H203.29a47.37 47.37 0 0 1-12.83-36.45Zm11.44 66.5a3.4 3.4 0 0 1-3.4-3.39v-8.21a3.4 3.4 0 0 1 3.4-3.4h108.2a3.4 3.4 0 0 1 3.4 3.4v8.21a3.4 3.4 0 0 1-3.4 3.39Zm101.94 183h-95.68l13.76-168h68.16Zm-139.26 65.63 18.15-45.92a7.45 7.45 0 0 1 7-4.74h9.44a8.46 8.46 0 0 0 .87.05H312a8.46 8.46 0 0 0 .87-.05h9.44a7.45 7.45 0 0 1 7 4.74l18.15 45.92a7.49 7.49 0 0 1-6 10.2H170.62a7.49 7.49 0 0 1-6-10.2ZM355 497H157v-6.86a8.21 8.21 0 0 1 8.2-8.2h4.8c.51 0 1 .06 1.54.06h168.9c.52 0 1 0 1.54-.06h4.82a8.21 8.21 0 0 1 8.2 8.2Z"
					/>
				</svg>