<svg
					xmlns="http://www.w3.org/2000/svg"
					data-name="Layer 1"
					viewBox="0 0 512 512"
				>
					<path
						fill="#000"
						d="M359.81 469.63a22.48 22.48 0 0 0 1.56-19.72L343.22 404a22.36 22.36 0 0 0-20.92-14.23h-3.4l-13.77-168h5a18.41 18.41 0 0 0 18.4-18.39v-8.21a18.42 18.42 0 0 0-18.4-18.4L347.14 113a7.49 7.49 0 0 0-9.75-10.5C332 69.88 306.94 43.74 274.7 36.31a22.5 22.5 0 1 0-37.4 0c-32.23 7.43-57.3 33.57-62.69 66.19a7.48 7.48 0 0 0-9.75 10.5l37.06 63.75a18.42 18.42 0 0 0-18.4 18.4v8.21a18.41 18.41 0 0 0 18.4 18.39h5l-13.77 168h-3.4A22.36 22.36 0 0 0 168.78 404l-18.15 45.92a22.48 22.48 0 0 0 1.56 19.72A23.16 23.16 0 0 0 142 488.82v14.36a7.5 7.5 0 0 0 7.5 7.5h213a7.5 7.5 0 0 0 7.5-7.5v-14.36a23.16 23.16 0 0 0-10.19-19.19ZM256 16.32a7.5 7.5 0 1 1-7.5 7.5 7.5 7.5 0 0 1 7.5-7.5Zm0 32.85c35.69 0 65 27.48 67.33 62.11l-33.79 21.32L263 66.87a7.49 7.49 0 0 0-13.9 0l-26.63 65.84-33.75-21.39C191 76.67 220.31 49.17 256 49.17ZM193.26 132 222 150.19a7.49 7.49 0 0 0 11-3.52l23.05-57 23 56.87a7.51 7.51 0 0 0 11 3.53l28.85-18.21-26.08 44.87h-73.55Zm8.64 74.76a3.4 3.4 0 0 1-3.4-3.39v-8.21a3.4 3.4 0 0 1 3.4-3.4h12a7 7 0 0 0 1.12.09h82a7 7 0 0 0 1.12-.09h12a3.4 3.4 0 0 1 3.4 3.4v8.21a3.4 3.4 0 0 1-3.4 3.39h-95.9Zm102 183h-95.7l13.77-168h68.16Zm-139.32 65.66 18.15-45.92a7.45 7.45 0 0 1 7-4.74H322.3a7.45 7.45 0 0 1 7 4.74l18.15 45.92a7.49 7.49 0 0 1-6 10.2H170.62a7.49 7.49 0 0 1-6-10.2ZM355 495.68H157v-6.86a8.21 8.21 0 0 1 8.2-8.2h4.8c.51 0 1 .06 1.54.06h168.9c.52 0 1 0 1.54-.06h4.82a8.21 8.21 0 0 1 8.2 8.2Z"
					/>
				</svg>